<svg width="26" height="19" viewBox="0 0 26 19" fill="none" xmlns="http://www.w3.org/2000/svg">
<path d="M23.75 19C23.75 19 25.3333 19 25.3333 17.4167C25.3333 15.8333 23.75 11.0833 17.4167 11.0833C11.0833 11.0833 9.5 15.8333 9.5 17.4167C9.5 19 11.0833 19 11.0833 19H23.75ZM11.1182 17.4167C11.1065 17.415 11.0948 17.4129 11.0833 17.4103C11.0849 16.9923 11.3477 15.7795 12.2867 14.687C13.1607 13.6626 14.6965 12.6667 17.4167 12.6667C20.1352 12.6667 21.6711 13.6642 22.5467 14.687C23.4856 15.7795 23.7468 16.9939 23.75 17.4103L23.7373 17.4135C23.73 17.4147 23.7226 17.4158 23.7152 17.4167H11.1182V17.4167ZM17.4167 7.91666C18.2565 7.91666 19.062 7.58303 19.6558 6.98917C20.2497 6.3953 20.5833 5.58985 20.5833 4.75C20.5833 3.91015 20.2497 3.10469 19.6558 2.51083C19.062 1.91696 18.2565 1.58333 17.4167 1.58333C16.5768 1.58333 15.7714 1.91696 15.1775 2.51083C14.5836 3.10469 14.25 3.91015 14.25 4.75C14.25 5.58985 14.5836 6.3953 15.1775 6.98917C15.7714 7.58303 16.5768 7.91666 17.4167 7.91666ZM22.1667 4.75C22.1667 5.37378 22.0438 5.99145 21.8051 6.56774C21.5664 7.14404 21.2165 7.66768 20.7754 8.10875C20.3343 8.54983 19.8107 8.89971 19.2344 9.13842C18.6581 9.37713 18.0404 9.5 17.4167 9.5C16.7929 9.5 16.1752 9.37713 15.5989 9.13842C15.0226 8.89971 14.499 8.54983 14.0579 8.10875C13.6168 7.66768 13.2669 7.14404 13.0282 6.56774C12.7895 5.99145 12.6667 5.37378 12.6667 4.75C12.6667 3.49022 13.1671 2.28204 14.0579 1.39124C14.9487 0.500445 16.1569 0 17.4167 0C18.6764 0 19.8846 0.500445 20.7754 1.39124C21.6662 2.28204 22.1667 3.49022 22.1667 4.75V4.75ZM10.982 11.5267C10.3486 11.3272 9.69575 11.1961 9.0345 11.1356C8.66294 11.1002 8.2899 11.0828 7.91666 11.0833C1.58333 11.0833 0 15.8333 0 17.4167C0 18.4727 0.52725 19 1.58333 19H8.25866C8.02394 18.5057 7.90688 17.9638 7.91666 17.4167C7.91666 15.8175 8.51358 14.1835 9.6425 12.8187C10.0272 12.3532 10.4753 11.9177 10.982 11.5267ZM7.79 12.6667C6.85291 14.0747 6.34669 15.7254 6.33333 17.4167H1.58333C1.58333 17.005 1.843 15.7858 2.78667 14.687C3.64958 13.68 5.149 12.6983 7.79 12.6682V12.6667ZM2.375 5.54166C2.375 4.28189 2.87544 3.07371 3.76624 2.18291C4.65704 1.29211 5.86522 0.791666 7.125 0.791666C8.38478 0.791666 9.59296 1.29211 10.4838 2.18291C11.3746 3.07371 11.875 4.28189 11.875 5.54166C11.875 6.80144 11.3746 8.00962 10.4838 8.90042C9.59296 9.79122 8.38478 10.2917 7.125 10.2917C5.86522 10.2917 4.65704 9.79122 3.76624 8.90042C2.87544 8.00962 2.375 6.80144 2.375 5.54166V5.54166ZM7.125 2.375C6.28515 2.375 5.47969 2.70863 4.88583 3.30249C4.29196 3.89636 3.95833 4.70181 3.95833 5.54166C3.95833 6.38152 4.29196 7.18697 4.88583 7.78083C5.47969 8.3747 6.28515 8.70833 7.125 8.70833C7.96485 8.70833 8.7703 8.3747 9.36417 7.78083C9.95803 7.18697 10.2917 6.38152 10.2917 5.54166C10.2917 4.70181 9.95803 3.89636 9.36417 3.30249C8.7703 2.70863 7.96485 2.375 7.125 2.375Z" fill="url(#paint0_linear_43_43)"/>
<defs>
<linearGradient id="paint0_linear_43_43" x1="12.6667" y1="0" x2="12.6667" y2="19" gradientUnits="userSpaceOnUse">
<stop stop-color="#55A99D"/>
<stop offset="0.979167" stop-color="#007665"/>
<stop offset="0.9998" stop-color="#55A99D" stop-opacity="0.020654"/>
<stop offset="0.9999" stop-color="#55A99D" stop-opacity="0.01"/>
<stop offset="1" stop-color="#55A99D" stop-opacity="0"/>
</linearGradient>
</defs>
</svg>
