<svg width="16" height="20" viewBox="0 0 16 20" fill="none" xmlns="http://www.w3.org/2000/svg">
<path d="M7.7368 12.6316C5.90207 12.6316 4.43207 11.2211 4.43207 9.47368L4.42102 3.15789C4.42102 1.41053 5.90207 0 7.7368 0C9.57154 0 11.0526 1.41053 11.0526 3.15789V9.47368C11.0526 11.2211 9.57154 12.6316 7.7368 12.6316ZM1.87891 9.47368C1.87891 12.6316 4.68628 14.8421 7.7368 14.8421C10.7873 14.8421 13.5947 12.6316 13.5947 9.47368H15.4736C15.4736 13.0737 12.4673 16.0316 8.84206 16.5474V20H6.63154V16.5474C3.00628 16.0421 -3.0756e-05 13.0737 -3.0756e-05 9.47368H1.87891Z" fill="#C5BDBD"/>
</svg>
