<svg width="16" height="21" viewBox="0 0 16 21" fill="none" xmlns="http://www.w3.org/2000/svg">
<path d="M7.73678 13.2632C5.90204 13.2632 4.43204 11.7821 4.43204 9.94738L4.42099 3.31579C4.42099 1.48105 5.90204 0 7.73678 0C9.57152 0 11.0526 1.48105 11.0526 3.31579V9.94738C11.0526 11.7821 9.57152 13.2632 7.73678 13.2632ZM1.87888 9.94738C1.87888 13.2632 4.68625 15.5842 7.73678 15.5842C10.7873 15.5842 13.5947 13.2632 13.5947 9.94738H15.4736C15.4736 13.7274 12.4673 16.8332 8.84205 17.3748V21H6.63152V17.3748C3.00625 16.8442 -7.08103e-05 13.7274 -7.08103e-05 9.94738H1.87888Z" fill="white"/>
</svg>
