<svg width="18" height="18" viewBox="0 0 18 18" fill="none" xmlns="http://www.w3.org/2000/svg">
<path d="M17.8325 0.166404C17.9118 0.245875 17.9661 0.346908 17.9885 0.456951C18.0109 0.566994 18.0005 0.681198 17.9585 0.785376L11.2894 17.4598C11.2306 17.6066 11.1325 17.7344 11.0058 17.8291C10.8791 17.9237 10.7287 17.9816 10.5712 17.9963C10.4137 18.011 10.2553 17.9819 10.1132 17.9124C9.97122 17.8428 9.85113 17.7354 9.76621 17.6019L6.12391 11.8764L0.399134 8.23367C0.265405 8.14883 0.15771 8.02869 0.0879332 7.8865C0.0181566 7.74432 -0.0109891 7.58562 0.00371211 7.42792C0.0184133 7.27022 0.0763899 7.11964 0.171244 6.99281C0.266099 6.86598 0.394144 6.76782 0.541251 6.70917L17.2136 0.0414633C17.3177 -0.000475159 17.4319 -0.0108827 17.542 0.0115334C17.652 0.0339496 17.753 0.0882016 17.8325 0.16755V0.166404ZM7.26772 11.5417L10.4321 16.5141L15.8566 2.95178L7.26772 11.5417ZM15.0463 2.14138L1.48564 7.56656L6.45857 10.7302L15.0474 2.14138H15.0463Z" fill="#C5BDBD"/>
</svg>
