<svg width="20" height="20" viewBox="0 0 20 20" fill="none" xmlns="http://www.w3.org/2000/svg">
<g id="Group">
<path id="Vector" d="M10 10C8.67392 10 7.40215 9.47322 6.46447 8.53553C5.52678 7.59785 5 6.32608 5 5C5 3.67392 5.52678 2.40215 6.46447 1.46447C7.40215 0.526784 8.67392 0 10 0C11.3261 0 12.5979 0.526784 13.5355 1.46447C14.4732 2.40215 15 3.67392 15 5C15 6.32608 14.4732 7.59785 13.5355 8.53553C12.5979 9.47322 11.3261 10 10 10V10ZM6.66667 5C6.66667 5.88405 7.01786 6.7319 7.64298 7.35702C8.2681 7.98214 9.11595 8.33333 10 8.33333C10.8841 8.33333 11.7319 7.98214 12.357 7.35702C12.9821 6.7319 13.3333 5.88405 13.3333 5C13.3333 4.11594 12.9821 3.2681 12.357 2.64298C11.7319 2.01786 10.8841 1.66667 10 1.66667C9.11595 1.66667 8.2681 2.01786 7.64298 2.64298C7.01786 3.2681 6.66667 4.11594 6.66667 5V5ZM4.76837e-07 18.3333C4.76837e-07 20 1.66667 20 1.66667 20H18.3333C18.3333 20 20 20 20 18.3333C20 16.6667 18.3333 11.6667 10 11.6667C1.66667 11.6667 4.76837e-07 16.6667 4.76837e-07 18.3333ZM1.66667 18.3267C1.66833 17.9167 1.92333 16.6833 3.05333 15.5533C4.14 14.4667 6.185 13.3333 10 13.3333C13.8167 13.3333 15.86 14.4667 16.9467 15.5533C18.0767 16.6833 18.33 17.9167 18.3333 18.3267H1.66667Z" fill="#C5BCBC"/>
</g>
</svg>
