<svg width="20" height="20" viewBox="0 0 20 20" fill="none" xmlns="http://www.w3.org/2000/svg">
<path d="M1.86061 10.5444V9.4484L0.485292 8.245C0.231772 8.02155 0.0654052 7.71566 0.0155955 7.38142C-0.0342142 7.04717 0.0357405 6.70607 0.213094 6.41841L1.90359 3.55316C2.0292 3.33559 2.20982 3.15488 2.42733 3.02916C2.64483 2.90343 2.89158 2.83711 3.1428 2.83685C3.29849 2.83566 3.45334 2.85986 3.60124 2.90848L5.34188 3.49586C5.6424 3.29616 5.95588 3.11668 6.28024 2.95863L6.64556 1.15352C6.71107 0.823738 6.89047 0.527497 7.15238 0.316659C7.41429 0.105822 7.74202 -0.00617903 8.07818 0.000263195H11.4305C11.7667 -0.00617903 12.0944 0.105822 12.3563 0.316659C12.6182 0.527497 12.7976 0.823738 12.8631 1.15352L13.2285 2.95863C13.5551 3.11664 13.871 3.29611 14.174 3.49586L15.8788 2.87983C16.0283 2.84088 16.1831 2.82637 16.3372 2.83685C16.5885 2.83711 16.8352 2.90343 17.0527 3.02916C17.2702 3.15488 17.4508 3.33559 17.5765 3.55316L19.267 6.41841C19.4342 6.70564 19.4963 7.04207 19.4427 7.37007C19.3891 7.69807 19.2232 7.99725 18.9733 8.21635L17.6194 9.45556V10.5515L18.9733 11.7549C19.2302 11.9755 19.4007 12.2801 19.4545 12.6145C19.5083 12.9488 19.4418 13.2915 19.267 13.5815L17.5765 16.4468C17.4508 16.6643 17.2702 16.845 17.0527 16.9708C16.8352 17.0965 16.5885 17.1628 16.3372 17.1631C16.1816 17.1643 16.0267 17.1401 15.8788 17.0914L14.1382 16.5041C13.8377 16.7038 13.5242 16.8832 13.1998 17.0413L12.8345 18.8464C12.769 19.1762 12.5896 19.4724 12.3277 19.6833C12.0658 19.8941 11.738 20.0061 11.4019 19.9997H8.02088C7.68471 20.0061 7.35699 19.8941 7.09508 19.6833C6.83317 19.4724 6.65376 19.1762 6.58826 18.8464L6.22294 17.0413C5.89625 16.8833 5.58039 16.7038 5.27741 16.5041L3.54394 17.0914C3.39603 17.1401 3.24119 17.1643 3.0855 17.1631C2.83427 17.1628 2.58753 17.0965 2.37002 16.9708C2.15252 16.845 1.9719 16.6643 1.84628 16.4468L0.213094 13.5815C0.0458981 13.2943 -0.016232 12.9579 0.0373463 12.6298C0.0909246 12.3018 0.256878 12.0027 0.506782 11.7836L1.86061 10.5444ZM3.1428 15.7304L5.59975 14.8995C6.1749 15.3867 6.83224 15.7675 7.54095 16.0241L8.04953 18.5957H11.4305L11.9391 16.0528C12.6422 15.7889 13.296 15.4087 13.8731 14.9282L16.3372 15.7304L18.0277 12.8652L16.0794 11.1461C16.2118 10.4046 16.2118 9.64549 16.0794 8.904L18.0277 7.13472L16.3372 4.26948L13.8803 5.1004C13.3051 4.61323 12.6478 4.23241 11.9391 3.97579L11.4305 1.40423H8.04953L7.54095 3.94714C6.83784 4.21104 6.18406 4.5912 5.60691 5.07174L3.1428 4.26948L1.45231 7.13472L3.40068 8.85386C3.26823 9.59535 3.26823 10.3544 3.40068 11.0959L1.45231 12.8652L3.1428 15.7304Z" fill="#B1B1B1"/>
<path d="M9.73998 14.2978C10.59 14.2978 11.421 14.0458 12.1277 13.5735C12.8345 13.1012 13.3854 12.43 13.7107 11.6447C14.036 10.8593 14.1211 9.99519 13.9553 9.16148C13.7894 8.32778 13.3801 7.56197 12.779 6.96091C12.178 6.35984 11.4122 5.95051 10.5784 5.78467C9.74474 5.61884 8.88059 5.70395 8.09526 6.02925C7.30992 6.35454 6.63869 6.90541 6.16643 7.61219C5.69418 8.31897 5.44211 9.14992 5.44211 9.99995C5.43637 10.566 5.54361 11.1274 5.75756 11.6515C5.97151 12.1755 6.28788 12.6516 6.68812 13.0518C7.08836 13.4521 7.56444 13.7684 8.08848 13.9824C8.61252 14.1963 9.17398 14.3036 9.73998 14.2978V14.2978ZM9.73998 7.13471C10.1187 7.12589 10.4952 7.19397 10.8468 7.33484C11.1984 7.47571 11.5178 7.68644 11.7857 7.95428C12.0535 8.22212 12.2642 8.54151 12.4051 8.89312C12.546 9.24474 12.614 9.62127 12.6052 9.99995C12.614 10.3786 12.546 10.7552 12.4051 11.1068C12.2642 11.4584 12.0535 11.7778 11.7857 12.0456C11.5178 12.3135 11.1984 12.5242 10.8468 12.6651C10.4952 12.8059 10.1187 12.874 9.73998 12.8652C9.3613 12.874 8.98476 12.8059 8.63315 12.6651C8.28153 12.5242 7.96214 12.3135 7.6943 12.0456C7.42646 11.7778 7.21573 11.4584 7.07486 11.1068C6.934 10.7552 6.86591 10.3786 6.87473 9.99995C6.86591 9.62127 6.934 9.24474 7.07486 8.89312C7.21573 8.54151 7.42646 8.22212 7.6943 7.95428C7.96214 7.68644 8.28153 7.47571 8.63315 7.33484C8.98476 7.19397 9.3613 7.12589 9.73998 7.13471Z" fill="#B1B1B1"/>
</svg>
