<svg width="25" height="18" viewBox="0 0 25 18" fill="none" xmlns="http://www.w3.org/2000/svg">
<path d="M17.3214 15.5893V1.73214H1.73214V15.5893H17.3214ZM19.0536 4.33036L24.25 1.73214V15.5893L19.0536 12.9911V16.4554C19.0536 16.6851 18.9623 16.9053 18.7999 17.0678C18.6375 17.2302 18.4172 17.3214 18.1875 17.3214H0.866071C0.636375 17.3214 0.416086 17.2302 0.253666 17.0678C0.0912465 16.9053 0 16.6851 0 16.4554V0.866071C0 0.636375 0.0912465 0.416086 0.253666 0.253667C0.416086 0.0912467 0.636375 0 0.866071 0H18.1875C18.4172 0 18.6375 0.0912467 18.7999 0.253667C18.9623 0.416086 19.0536 0.636375 19.0536 0.866071V4.33036ZM19.0536 6.26689V11.0545L22.5179 12.7867V4.53475L19.0536 6.26689Z" fill="#383737"/>
</svg>
