<svg width="16" height="21" viewBox="0 0 16 21" fill="none" xmlns="http://www.w3.org/2000/svg">
<path d="M2.80629 0.468103L3.97329 0.117103C4.61258 -0.075673 5.30018 -0.0292666 5.90776 0.247663C6.51535 0.524593 7.00143 1.01313 7.27529 1.6221L8.17729 3.6281C8.41276 4.15191 8.47833 4.73628 8.3648 5.29924C8.25128 5.8622 7.96436 6.37549 7.54429 6.7671L6.05029 8.1601C6.00662 8.2008 5.97895 8.25578 5.97229 8.3151C5.92829 8.7121 6.19729 9.4851 6.81729 10.5601C7.26829 11.3411 7.67729 11.8901 8.02429 12.1971C8.26629 12.4121 8.39929 12.4581 8.45629 12.4421L10.4663 11.8271C11.0152 11.6592 11.6029 11.6673 12.147 11.8502C12.6911 12.0331 13.1643 12.3817 13.5003 12.8471L14.7813 14.6231C15.1708 15.1632 15.3512 15.8263 15.2888 16.4893C15.2265 17.1523 14.9257 17.7701 14.4423 18.2281L13.5563 19.0681C13.0861 19.5134 12.5085 19.8293 11.8799 19.9851C11.2513 20.1409 10.5931 20.1313 9.96929 19.9571C7.21529 19.1881 4.74629 16.8641 2.53429 13.0331C0.319293 9.1971 -0.457707 5.8931 0.258293 3.1201C0.419469 2.49644 0.738579 1.92481 1.18487 1.4603C1.63115 0.995798 2.18957 0.654087 2.80629 0.468103ZM3.23929 1.9051C2.86937 2.01656 2.53437 2.22139 2.26657 2.49987C1.99878 2.77835 1.8072 3.1211 1.71029 3.4951C1.10829 5.8271 1.79729 8.7561 3.83329 12.2831C5.86629 15.8051 8.05529 17.8651 10.3733 18.5131C10.7474 18.6173 11.1422 18.6229 11.5191 18.5293C11.896 18.4357 12.2423 18.2462 12.5243 17.9791L13.4113 17.1391C13.6311 16.9309 13.7679 16.65 13.7962 16.3485C13.8245 16.0471 13.7425 15.7456 13.5653 15.5001L12.2853 13.7251C12.1326 13.5133 11.9173 13.3547 11.6698 13.2715C11.4223 13.1882 11.155 13.1846 10.9053 13.2611L8.89029 13.8781C7.72029 14.2261 6.65829 13.2851 5.51829 11.3101C4.75029 9.9801 4.39229 8.9501 4.48129 8.1491C4.52829 7.7331 4.72129 7.3491 5.02729 7.0631L6.52129 5.6701C6.71232 5.49212 6.84281 5.25879 6.89446 5.00285C6.94612 4.74692 6.91633 4.48124 6.80929 4.2431L5.90729 2.2371C5.78281 1.96051 5.56201 1.73862 5.28604 1.61277C5.01006 1.48693 4.69775 1.46572 4.40729 1.5531L3.23929 1.9051Z" fill="#383737"/>
</svg>
